{"title":"Hamari Adhuri Kahaani 2015 Hindi Pre-DVDRip x264-M2Tv","uid":12011806,"size":744548703,"categoryP":"video","categoryS":"movies","magnet":"?xt=urn:btih:663463371748b41aecbc4b309e5ea0d4480fdcdb&amp;dn=Hamari+Adhuri+Kahaani+2015+Hindi+Pre-DVDRip+x264-M2Tv&amp;tr=udp%3A%2F%2Ftracker.openbittorrent.com%3A80&amp;tr=udp%3A%2F%2Fopen.demonii.com%3A1337&amp;tr=udp%3A%2F%2Ftracker.coppersurfer.tk%3A6969&amp;tr=udp%3A%2F%2Fexodus.desync.com%3A6969","seeders":1,"leechers":0,"uploader":"makintos13","files":3,"time":1434181491,"description":"screens:\n &lt;a href=&quot;\nhttp://imgmak.com/Hn&quot; rel=&quot;nofollow&quot; target=&quot;_NEW&quot;&gt;\nhttp://imgmak.com/Hn&lt;/a&gt;\n &lt;a href=&quot;\nhttp://imgmak.com/Hr&quot; rel=&quot;nofollow&quot; target=&quot;_NEW&quot;&gt;\nhttp://imgmak.com/Hr&lt;/a&gt;\n &lt;a href=&quot;\nhttp://imgmak.com/HB&quot; rel=&quot;nofollow&quot; target=&quot;_NEW&quot;&gt;\nhttp://imgmak.com/HB&lt;/a&gt;\n\n:::::::::::::::\n\nSource: OWN M2TV\n\nGeneral\nComplete name : Hamari Adhuri Kahaani (2015) - 1CD - PreDVD-Rip - Hindi - x264 - Mafiaking - M2Tv - ExClusive.mkv\nFormat : Matroska\nFormat version : Version 4 / Version 2\nFile size : 705 MiB\nDuration : 2h 3mn\nOverall bit rate : 798 Kbps\nMovie name : Hamari Adhuri Kahaani (2015) - 1CD - PreDVD-Rip - Hindi - x264 - Mafiaking - M2Tv - ExClusive\nEncoded date : UTC 2015-06-12 16:28:56\n\nVideo\nID : 1\nFormat : AVC\nFormat/Info : Advanced Video Codec\nFormat profile : &lt;a class=&quot;__cf_email__&quot; href=&quot;/cdn-cgi/l/email-protection&quot; data-cfemail=&quot;dd95b4bab59d91e9f3ec&quot;&gt;[email&amp;#160;protected]&lt;/a&gt;&lt;script data-cfhash='f9e31' type=&quot;text/javascript&quot;&gt;\n/* &lt;![CDATA[ */!function(){try{var t=&quot;currentScript&quot;in document?document.currentScript:function(){for(var t=document.getElementsByTagName(&quot;script&quot;),e=t.length;e--;)if(t[e].getAttribute(&quot;data-cfhash&quot;))return t[e]}();if(t&amp;&amp;t.previousSibling){var e,r,n,i,c=t.previousSibling,a=c.getAttribute(&quot;data-cfemail&quot;);if(a){for(e=&quot;&quot;,r=parseInt(a.substr(0,2),16),n=2;a.length-n;n+=2)i=parseInt(a.substr(n,2),16)^r,e+=String.fromCharCode(i);e=document.createTextNode(e),c.parentNode.replaceChild(e,c)}t.parentNode.removeChild(t);}}catch(u){}}()/* ]]&gt; */&lt;/script&gt;\nFormat settings, CABAC : Yes\nFormat settings, ReFrames : 4 frames\nCodec ID : V_MPEG4/ISO/AVC\nDuration : 2h 3mn\nBit rate : 716 Kbps\nWidth : 640 pixels\nHeight : 272 pixels\nDisplay aspect ratio : 2.35:1\nFrame rate mode : Constant\nFrame rate : 25.000 fps\nColor space : YUV\nChroma subsampling : 4:2:0\nBit depth : 8 bits\nScan type : Progressive\nBits/(Pixel*Frame) : 0.165\nStream size : 620 MiB (88%)\nTitle : Mafiaking\nLanguage : Hindi\nDefault : Yes\nForced : No\n\nAudio\nID : 2\nFormat : MPEG Audio\nFormat version : Version 1\nFormat profile : Layer 3\nMode : Joint stereo\nMode extension : MS Stereo\nCodec ID : A_MPEG/L3\nCodec ID/Hint : MP3\nDuration : 2h 3mn\nBit rate mode : Constant\nBit rate : 80.0 Kbps\nChannel(s) : 2 channels\nSampling rate : 32.0 KHz\nCompression mode : Lossy\nStream size : 70.7 MiB (10%)\nTitle : Mafiaking\nWriting library : LAME3.99r\nLanguage : Hindi\nDefault : Yes\nForced : No","torrent":{"xt":"urn:btih:663463371748b41aecbc4b309e5ea0d4480fdcdb","amp;dn":"Hamari+Adhuri+Kahaani+2015+Hindi+Pre-DVDRip+x264-M2Tv","amp;tr":["udp%3A%2F%2Ftracker.openbittorrent.com%3A80","udp%3A%2F%2Fopen.demonii.com%3A1337","udp%3A%2F%2Ftracker.coppersurfer.tk%3A6969","udp%3A%2F%2Fexodus.desync.com%3A6969"],"infoHash":"663463371748b41aecbc4b309e5ea0d4480fdcdb","infoHashBuffer":{"type":"Buffer","data":[102,52,99,55,23,72,180,26,236,188,75,48,158,94,160,212,72,15,220,219]},"announce":[],"urlList":[]}}